<svg width="485" height="147" viewBox="0 0 485 147" fill="none" xmlns="http://www.w3.org/2000/svg">
<path d="M109.218 28.9533L108.277 56.2558H97.2172C97.2172 51.653 97.1128 47.9396 96.904 45.1152C96.6946 42.2907 96.0148 40.094 94.8645 38.5251C93.7665 36.9556 92.0145 35.9101 89.6096 35.3867C87.2041 34.8112 83.8314 34.4715 79.4915 34.367H64.6675V122.002C64.6675 127.964 65.1121 131.625 66.0008 132.985C66.9422 134.293 68.0402 135.13 69.2954 135.496C70.5501 135.81 71.7789 135.967 72.9813 135.967C74.2366 135.967 75.439 135.941 76.5892 135.888C77.7401 135.783 78.9689 135.653 80.2757 135.496C83.7792 135.182 85.8709 134.921 86.5507 134.711L85.6093 144.754L25.3724 144.675L26.0001 135.967C31.1242 135.967 35.0981 135.81 37.9218 135.496C40.7977 135.182 42.9157 134.502 44.2748 133.456C45.6866 132.358 46.5494 130.789 46.8632 128.749C47.177 126.657 47.3336 123.833 47.3336 120.276V34.367H35.0195C26.3397 34.5759 20.4835 36.1712 17.4504 39.1529C14.4702 42.0818 12.6137 47.783 11.8817 56.2558H0.901367C1.37179 52.0719 1.97301 47.7302 2.70503 43.2324C3.43705 38.6818 3.98607 35.1251 4.35208 32.5623L5.45068 24.7167H109.061C109.165 25.2922 109.218 25.92 109.218 26.6V28.9533ZM233.362 130.475L233.99 130.396H234.382L234.146 140.125L211.087 146.087C208.838 142.583 207.348 138.477 206.616 133.77C200.969 138.477 193.57 142.139 184.42 144.754C181.283 145.643 178.041 146.087 174.694 146.087C171.4 146.087 168.106 145.538 164.812 144.44C161.57 143.342 158.746 141.668 156.341 139.419C151.269 134.659 148.732 127.703 148.732 118.55L149.36 74.2223C149.36 68.9917 148.549 65.6181 146.929 64.1014C145.726 63.0031 143.242 62.2709 139.478 61.9047L140.654 54.2164L167.635 49.8224L166.066 64.4153C164.968 74.4576 164.419 89.7306 164.419 110.233C164.419 118.602 165.596 124.46 167.948 127.808C170.249 131.207 174.328 132.907 180.185 132.907C185.465 132.907 190.041 132.149 193.91 130.632C200.081 128.121 203.976 125.872 205.596 123.885L205.44 123.963V75.0068C205.44 69.5151 204.368 65.9842 202.224 64.4153C200.551 63.1075 196.812 62.4017 191.008 62.2973L192.185 54.2164L222.539 49.8224C222.381 52.5424 222.225 54.8958 222.068 56.8836L221.754 62.14C221.649 63.8661 221.545 65.435 221.44 66.8473C221.335 68.2073 221.257 69.6459 221.205 71.1626C221.1 74.196 221.048 78.3018 221.048 83.4802V120.825C221.048 125.846 221.466 128.906 222.303 130.004C223.192 131.103 224.003 131.704 224.735 131.808C225.519 131.913 226.355 131.966 227.244 131.966H227.95C229.571 131.966 231.375 131.469 233.362 130.475ZM315.701 128.043L319.153 134.711C313.976 139.523 307.361 142.923 299.309 144.91C296.747 145.59 294.054 145.931 291.23 145.931C288.407 145.931 285.792 145.617 283.387 144.989C281.034 144.361 279.073 143.289 277.504 141.773C274.472 138.844 272.798 133.64 272.485 126.16V63.3956H258.837L259.465 55.3927C266.785 54.0855 271.857 51.3397 274.681 47.1552C276.93 43.8079 278.838 37.1915 280.407 27.3058H288.956V51.3919H317.897V63.3956H288.328V117.059C288.328 123.597 289.269 127.912 291.152 130.004C292.721 131.73 295.988 132.593 300.956 132.593C305.924 132.593 310.839 131.076 315.701 128.043ZM372.393 34.4451C370.929 35.0206 369.334 35.3081 367.609 35.3081C365.883 35.3081 364.262 35.0206 362.746 34.4451C361.23 33.8178 359.922 32.9806 358.824 31.9345C356.419 29.7378 355.216 27.3581 355.216 24.7953C355.216 22.1802 355.53 20.1138 356.158 18.5972C356.785 17.0805 357.674 15.7727 358.824 14.6743C361.23 12.321 364.184 11.144 367.687 11.144C371.086 11.144 373.936 12.321 376.237 14.6743C378.485 17.0283 379.609 19.9836 379.609 23.5403C379.609 28.8225 377.204 32.4578 372.393 34.4451ZM378.354 49.8224C376.001 56.6219 374.825 70.012 374.825 89.9916L375.374 126.552C375.374 129.743 375.871 132.201 376.864 133.927C377.857 135.6 379.844 136.438 382.825 136.438C385.23 136.438 387.374 136.124 389.256 135.496L388.158 144.754H346.04L347.451 136.438C352.576 136.438 356.053 135.025 357.883 132.201C359.4 129.795 360.157 125.794 360.157 120.197V79.1649C360.157 72.6271 359.007 68.3903 356.707 66.4553C354.877 64.8859 350.85 64.1014 344.628 64.1014L345.883 54.2164L378.354 49.8224ZM444.379 134.319C445.164 135.261 446.183 135.862 447.438 136.124C448.746 136.333 451.439 136.438 455.517 136.438C459.595 136.438 462.785 136.124 465.086 135.496L464.537 144.754H414.026L415.124 136.438C419.725 136.438 422.679 135.627 423.987 134.006C426.34 131.076 427.516 125.898 427.516 118.471V80.6557C427.516 73.5946 426.784 69.227 425.32 67.5537C423.699 65.6709 420.143 64.572 414.653 64.2587L415.751 54.2164L443.909 49.9796C443.386 53.7974 443.124 58.165 443.124 63.0817C448.615 57.8511 455.046 53.9025 462.419 51.2346C465.034 50.3458 467.517 49.901 469.87 49.901C479.91 49.901 484.93 54.373 484.93 63.317C484.93 68.5998 484.171 74.2746 482.655 80.3418C482.55 80.7602 482.472 81.0477 482.42 81.2049C482.367 81.3093 482.341 81.388 482.341 81.4402H469.243L469.713 77.7526L470.027 74.6143C470.131 73.621 470.184 72.5748 470.184 71.4765C470.184 70.3782 470.079 69.2798 469.87 68.1809C469.713 67.0826 469.374 66.1673 468.85 65.435C467.91 64.0228 466.315 63.317 464.066 63.317C461.818 63.317 459.674 63.6567 457.634 64.3367C455.648 65.0167 453.713 65.8276 451.83 66.7692C448.014 68.7565 445.059 70.7965 442.968 72.8887L443.124 72.8101L443.203 125.454C443.203 130.423 443.595 133.378 444.379 134.319Z" fill="#179E8B"/>
<path d="M392.437 25.24C393.202 24.7981 393.202 23.694 392.437 23.2522L352.853 0.391884C352.088 -0.0499775 351.132 0.502066 351.132 1.38579V47.1064C351.132 47.9901 352.088 48.5422 352.853 48.1003L392.437 25.24Z" fill="#179E8B"/>
</svg>
